# AST/ASF file generated using VICON BodyLanguage
# -----------------------------------------------
:version 1.10
:name VICON
:units
  mass 1.0
  length 0.45
  angle deg
:documentation
   .ast/.asf automatically generated from VICON data using
   VICON BodyBuilder and BodyLanguage model FoxedUp or BRILLIANT.MOD
:root
   order TX TY TZ RX RY RZ
   axis XYZ
   position 0 0 0  
   orientation 0 0 0 
:bonedata
  begin
     id 1 
     name lhipjoint
     direction 0.567149 -0.783011 0.255413 
     length 2.28399 
     axis 0 0 0  XYZ
  end
  begin
     id 2 
     name lfemur
     direction 0.34202 -0.939693 0  
     length 7.34031  
     axis 0 0 20  XYZ
    dof rx ry rz
    limits (-160.0 20.0)
           (-70.0 70.0)
           (-60.0 70.0)
  end
  begin
     id 3 
     name ltibia
     direction 0.34202 -0.939693 0   
     length 6.9833   
     axis 0 0 20   XYZ
    dof rx
    limits (-10.0 170.0)
  end
  begin
     id 4 
     name lfoot
     direction 0.136498 -0.375025 0.91691   
     length 2.33665   
     axis -90 7.62852e-016 20   XYZ
    dof rx rz
    limits (-45.0 90.0)
           (-70.0 20.0)
  end
  begin
     id 5 
     name ltoes
     direction 1.5367e-011 -4.21617e-011 1   
     length 1.15039   
     axis -90 7.62852e-016 20   XYZ
    dof rx
    limits (-90.0 20.0)
  end
  begin
     id 6 
     name rhipjoint
     direction -0.602854 -0.758518 0.247423   
     length 2.35775  
     axis 0 0 0  XYZ 
  end
  begin
     id 7 
     name rfemur
     direction -0.34202 -0.939693 0   
     length 7.43932   
     axis 0 0 -20   XYZ
    dof rx ry rz
    limits (-160.0 20.0)
           (-70.0 70.0)
           (-70.0 60.0)
  end
  begin
     id 8 
     name rtibia
     direction -0.34202 -0.939693 0   
     length 7.11893   
     axis 0 0 -20   XYZ
    dof rx
    limits (-10.0 170.0)
 end
 begin
     id 9 
     name rfoot
     direction -0.131771 -0.362037 0.922803   
     length 2.53019  
     axis -90 -7.62852e-016 -20   XYZ
    dof rx rz
    limits (-45.0 90.0)
           (-20.0 70.0)
  end
  begin
     id 10 
     name rtoes
     direction -1.53733e-011 -4.21932e-011 1   
     length 1.24596   
     axis -90 -7.62852e-016 -20   XYZ
    dof rx
    limits (-90.0 20.0)
  end
  begin
     id 11 
     name lowerback
     direction 0.0235427 0.999023 -0.0374125   
     length 2.21768   
     axis 0 0 0   XYZ
    dof rx ry rz
    limits (-20.0 45.0)
           (-30.0 30.0)
           (-30.0 30.0)
  end
  begin
     id 12 
     name upperback
     direction 0.0302156 0.996818 -0.073759   
     length 2.20352   
     axis 0 0 0   XYZ
    dof rx ry rz
    limits (-20.0 45.0)
           (-30.0 30.0)
           (-30.0 30.0)
  end
  begin
     id 13 
     name thorax
     direction 0.0187169 0.998235 -0.0563532   
     length 2.22103   
     axis 0 0 0   XYZ
    dof rx ry rz
    limits (-20.0 45.0)
           (-30.0 30.0)
           (-30.0 30.0)
  end
  begin
     id 14 
     name lowerneck
     direction -0.119528 0.987423 0.103481   
     length 1.72948   
     axis 0 0 0   XYZ
    dof rx ry rz
    limits (-20.0 45.0)
           (-30.0 30.0)
           (-30.0 30.0)
  end
  begin
     id 15 
     name upperneck
     direction 0.248049 0.963095 -0.104496   
     length 1.74979   
     axis 0 0 0   XYZ
    dof rx ry rz
    limits (-20.0 45.0)
           (-30.0 30.0)
           (-30.0 30.0)
  end
  begin
     id 16
     name head
     direction 0.0903589 0.994284 -0.056876  
     length 1.78268  
     axis 0 0 0   XYZ
    dof rx ry rz
    limits (-20.0 45.0)
           (-30.0 30.0)
           (-30.0 30.0)
  end
  begin
     id 17 
     name lclavicle
     direction 0.946008 0.242039 -0.215608  
     length 3.80783  
     axis 0 0 0   XYZ
    dof ry rz
    limits (-20.0 10.0)
           (0.0 20.0)
  end
  begin
     id 18 
     name lhumerus
     direction 1 -4.48991e-011 -2.25695e-027   
     length 4.83125   
     axis 180 -30 -90   XYZ
    dof rx ry rz
    limits (-60.0 90.0)
           (-90.0 90.0)
           (-90.0 90.0)
  end
  begin
     id 19
     name lradius
     direction 0.999991 0.00366712 -0.00211721   
     length 3.00391   
     axis 180 -30 -90   XYZ
    dof rx
    limits (-10.0 170.0)
  end
  begin
     id 20
     name lwrist
     direction 0.999991 0.00393016 -0.00141978   
     length 1.50195   
     axis -1.00488e-014 90 90   XYZ
    dof ry
    limits (-180.0 0.0)
 end
  begin
     id 21 
     name lhand
     direction 1 -4.49123e-011 2.72098e-026   
     length 1.2717   
     axis -1.73687e-014 90 90   XYZ
    dof rx rz
    limits (-90.0 90.0)
           (-45.0 45.0)
  end
  begin
     id 22 
     name lfingers
     direction 1 -4.48678e-011 5.4479e-026   
     length 1.02528   
     axis -3.47372e-014 90 90   XYZ
    dof rx
    limits (0.0 90.0)
  end
  begin
     id 23
     name lthumb
     direction 0.707107 -6.34851e-011 0.707107   
     length 1.4721   
     axis -90 45 -1.62303e-014   XYZ
    dof rx rz
    limits (-45.0 45.0)
           (-45.0 45.0)
  end
  begin
     id 24 
     name rclavicle
     direction -0.981723 0.189447 -0.0181673   
     length 3.74989  
     axis 0 0 0   XYZ 
    dof ry rz
    limits (-10.0 20.0)
           (-20.0 0.0)
  end
  begin
     id 25 
     name rhumerus
     direction -1 -4.48985e-011 2.38206e-027  
     length 4.61118   
     axis 180 30 90   XYZ
    dof rx ry rz
    limits (-90.0 60.0)
           (-90.0 90.0)
           (-90.0 90.0)
  end
  begin
     id 26 
     name rradius
     direction -1 -4.48977e-011 7.41019e-027   
     length 2.91491   
     axis 180 30 90   XYZ
    dof rx
    limits (-10.0 170.0)
  end
  begin
     id 27 
     name rwrist
     direction -1 -4.48549e-011 1.3624e-026   
     length 1.45745   
     axis -1.00488e-014 -90 -90   XYZ
    dof ry
    limits (-180.0 0.0)
  end
  begin
     id 28
     name rhand
     direction -1 -4.49107e-011 2.72109e-026   
     length 1.30769   
     axis -1.73687e-014 -90 -90   XYZ
    dof rx rz
    limits (-90.0 90.0)
           (-45.0 45.0)
  end
  begin
     id 29
     name rfingers
     direction -1 -4.48919e-011 5.44468e-026   
     length 1.05429   
     axis -3.47372e-014 -90 -90   XYZ
    dof rx
    limits (0.0 90.0)
  end
  begin
     id 30
     name rthumb
     direction -0.707107 -6.35315e-011 0.707107   
     length 1.51376   
     axis -90 -45 1.62303e-014   XYZ
    dof rx rz
    limits (-45.0 45.0)
           (-45.0 45.0)
  end
:hierarchy
  begin
    root lhipjoint rhipjoint lowerback
    lhipjoint lfemur
    lfemur ltibia
    ltibia lfoot
    lfoot ltoes
    rhipjoint rfemur
    rfemur rtibia
    rtibia rfoot
    rfoot rtoes
    lowerback upperback
    upperback thorax
    thorax lowerneck lclavicle rclavicle
    lowerneck upperneck
    upperneck head
    lclavicle lhumerus
    lhumerus lradius
    lradius lwrist
    lwrist lhand lthumb
    lhand lfingers
    rclavicle rhumerus
    rhumerus rradius
    rradius rwrist
    rwrist rhand rthumb
    rhand rfingers
  end

#!OML:ASF X:\für Bonn\!DataBase\2005_08_11_Bastian_Final\c3d\Bastian.ASF
:FULLY-SPECIFIED
:DEGREES
1
root 0.0832006 17.4334 19.6036 -908.966 -48.6301 -183.317
lowerback 10.0548 -1.49364 1.32104
upperback 10.4097 -2.88569 0.209489
thorax 5.24099 -1.77895 -0.403805
lowerneck 0.0794766 -12.4099 -16.2912
upperneck -4.87278 -16.4934 14.2788
head 1.10682 -8.26153 6.35037
rclavicle -7.00716e-014 3.33958e-014
rhumerus -28.0654 9.46971 -89.6127
rradius 46.1659
rwrist -6.10686
rhand -10.5251 5.13403
rfingers 7.12502
rthumb 15.4779 -24.2664
lclavicle -7.00716e-014 3.33958e-014
lhumerus -22.5641 21.4236 80.0635
lradius 13.0311
lwrist -0.465172
lhand -8.74035 -7.5376
lfingers 7.12502
lthumb 17.1964 21.7215
rfemur -0.340642 0.0702393 23.6744
rtibia 32.3168
rfoot -14.3307 -20.0851
rtoes 10.8553
lfemur 0.0408427 3.83006 -15.876
ltibia 38.1195
lfoot -8.77861 3.63041
ltoes -17.5953
2
root 0.00999296 17.4282 19.6229 -909.002 -47.6573 -183.287
lowerback 10.0209 -1.45229 1.26516
upperback 10.4286 -2.84582 0.198602
thorax 5.28228 -1.76646 -0.388783
lowerneck -0.144299 -12.3327 -16.258
upperneck -4.81412 -16.3626 14.2379
head 1.13388 -8.1903 6.32825
rclavicle -4.48259e-014 1.19271e-014
rhumerus -27.9678 9.97849 -89.8119
rradius 46.8551
rwrist -6.15629
rhand -10.3311 5.21878
rfingers 7.12502
rthumb 15.6648 -24.1671
lclavicle -4.48259e-014 1.19271e-014
lhumerus -23.0351 24.6938 78.7334
lradius 11.3997
lwrist -3.7897
lhand -8.37567 -7.34278
lfingers 7.12502
lthumb 17.5473 21.8853
rfemur -0.30568 0.752967 23.602
rtibia 32.4947
rfoot -14.3112 -19.8219
rtoes 10.3527
lfemur 0.476615 2.55173 -16.0582
ltibia 36.0479
lfoot -8.76375 2.64003
ltoes -19.5475
3
root -0.0639176 17.4242 19.6409 -909.043 -46.6577 -183.236
lowerback 9.94393 -1.39308 1.20369
upperback 10.4871 -2.7898 0.209139
thorax 5.39202 -1.74869 -0.3525
lowerneck -0.504601 -12.278 -16.2354
upperneck -4.71583 -16.2459 14.1985
head 1.19738 -8.12224 6.29599
rclavicle -4.67144e-015 -1.35174e-014
rhumerus -27.7881 10.44 -89.959
rradius 47.4578
rwrist -6.09045
rhand -10.1405 5.33996
rfingers 7.12502
rthumb 15.8483 -24.0314
lclavicle -4.67144e-015 -1.35174e-014
lhumerus -22.7668 24.1482 79.1999
lradius 9.8642
lwrist -3.15488
lhand -8.69999 -6.78577
lfingers 7.12502
lthumb 17.2352 22.4699
rfemur -0.252407 1.44701 23.5412
rtibia 32.6181
rfoot -14.2951 -19.5158
rtoes 9.90628
lfemur 0.888348 1.33921 -16.2143
ltibia 34.0591
lfoot -8.71628 1.54626
ltoes -21.8291
4
root -0.138425 17.4227 19.6585 -909.129 -45.6874 -183.11
lowerback 9.88665 -1.35053 1.20919
upperback 10.5139 -2.74714 0.222681
thorax 5.45395 -1.73207 -0.347491
lowerneck -0.80376 -12.2032 -16.1521
upperneck -4.65787 -16.1089 14.1373
head 1.22965 -8.04661 6.2569
rclavicle -1.73937e-014 -6.75868e-015
rhumerus -27.6742 10.8597 -90.1176
rradius 48.0064
rwrist -5.99069
rhand -10.0372 5.34742
rfingers 7.12502
rthumb 15.9478 -24.016
lclavicle -1.73937e-014 -6.75868e-015
lhumerus -22.6097 23.5575 79.5868
lradius 8.41066
lwrist -2.53577
lhand -9.01819 -6.43705
lfingers 7.12502
lthumb 16.9289 22.8452
rfemur -0.191587 2.14363 23.5404
rtibia 32.6886
rfoot -14.2654 -19.2461
rtoes 9.52317
lfemur 1.26636 0.0576247 -16.3286
ltibia 32.1625
lfoot -8.61382 0.353559
ltoes -23.1566
5
root -0.21222 17.4225 19.6748 -909.267 -44.6973 -182.92
lowerback 9.8623 -1.30521 1.23823
upperback 10.5209 -2.69729 0.248611
thorax 5.47586 -1.71047 -0.340838
lowerneck -1.09417 -12.1251 -16.0245
upperneck -4.54351 -15.9719 14.049
head 1.2713 -7.97089 6.20232
rclavicle -6.39093e-014 2.94201e-014
rhumerus -27.6391 11.3166 -90.2942
rradius 48.5552
rwrist -5.97257
rhand -10.0234 5.34442
rfingers 7.12502
rthumb 15.9611 -24.018
lclavicle -6.39093e-014 2.94201e-014
lhumerus -22.6159 22.9411 79.8993
lradius 7.18961
lwrist -1.86902
lhand -9.25832 -6.1324
lfingers 7.12502
lthumb 16.6978 23.1694
rfemur -0.0950519 2.87356 23.6049
rtibia 32.7065
rfoot -14.2242 -18.9841
rtoes 9.05013
lfemur 1.60971 -1.27711 -16.3579
ltibia 30.3677
lfoot -8.45628 -1.03295
ltoes -22.7527
6
root -0.285959 17.4229 19.6917 -909.408 -43.7421 -182.737
lowerback 9.84933 -1.27301 1.25096
upperback 10.5573 -2.67189 0.284777
thorax 5.5246 -1.70463 -0.31384
lowerneck -1.51467 -12.0442 -15.8847
upperneck -4.4049 -15.8162 13.9526
head 1.33669 -7.88261 6.13616
rclavicle 9.70069e-014 -3.45885e-014
rhumerus -27.5238 11.8221 -90.4411
rradius 49.0201
rwrist -5.9714
rhand -10.1022 5.34588
rfingers 7.12502
rthumb 15.8852 -24.0226
lclavicle 9.70069e-014 -3.45885e-014
lhumerus -22.6219 22.3593 80.2365
lradius 6.09411
lwrist -1.30204
lhand -9.52005 -5.86275
lfingers 7.12502
lthumb 16.4458 23.4602
rfemur 0.0104237 3.39338 23.6104
rtibia 32.6814
rfoot -14.1284 -18.5596
rtoes 8.63783
lfemur 1.9057 -2.71143 -16.3981
ltibia 28.672
lfoot -8.22637 -2.56439
ltoes -22.2883
7
root -0.35985 17.4258 19.7063 -909.539 -42.7825 -182.529
lowerback 9.80749 -1.2444 1.25871
upperback 10.5769 -2.64895 0.331132
thorax 5.57158 -1.69941 -0.27383
lowerneck -1.88935 -11.9428 -15.6985
upperneck -4.28686 -15.6396 13.8208
head 1.37932 -7.78556 6.05921
rclavicle 7.15625e-015 -3.97569e-015
rhumerus -27.4447 12.2987 -90.5917
rradius 49.447
rwrist -5.99204
rhand -10.2025 5.3421
rfingers 7.12502
rthumb 15.7887 -24.034
lclavicle 7.15625e-015 -3.97569e-015
lhumerus -22.7849 21.7729 80.5189
lradius 5.2544
lwrist -0.795773
lhand -9.77033 -5.63598
lfingers 7.12502
lthumb 16.2048 23.7067
rfemur 0.0878581 3.79467 23.6118
rtibia 32.6366
rfoot -13.9667 -18.0704
rtoes 7.79976
lfemur 2.13152 -4.07179 -16.3942
ltibia 27.0747
lfoot -7.95563 -4.15507
ltoes -22.2142
8
root -0.433409 17.427 19.721 -909.714 -41.8213 -182.288
lowerback 9.80661 -1.21408 1.28383
upperback 10.5964 -2.62441 0.393525
thorax 5.59603 -1.69389 -0.225174
lowerneck -2.2508 -11.8366 -15.5102
upperneck -4.18437 -15.4591 13.7038
head 1.41656 -7.68747 5.98831
rclavicle -9.83984e-015 -3.81667e-014
rhumerus -27.4217 12.7614 -90.7264
rradius 49.8774
rwrist -6.00296
rhand -10.3728 5.3658
rfingers 7.12502
rthumb 15.6246 -24.0232
lclavicle -9.83984e-015 -3.81667e-014
lhumerus -23.0396 21.1729 80.7804
lradius 4.63091
lwrist -0.335253
lhand -9.97834 -5.38412
lfingers 7.12502
lthumb 16.0045 23.9748
rfemur 0.18732 4.20317 23.641
rtibia 32.5889
rfoot -13.8716 -17.5415
rtoes 7.21966
lfemur 2.35579 -5.41947 -16.3608
ltibia 25.5848
lfoot -7.7148 -5.73002
ltoes -22.2718
9
root -0.505979 17.4279 19.734 -909.875 -40.8858 -182.031
lowerback 9.7712 -1.19047 1.29403
upperback 10.625 -2.61208 0.476099
thorax 5.65099 -1.69637 -0.148277
lowerneck -2.64581 -11.714 -15.3655
upperneck -4.06414 -15.2543 13.639
head 1.46958 -7.57607 5.93876
rclavicle 2.60408e-014 -3.45885e-014
rhumerus -27.3689 13.3055 -90.8283
rradius 50.2428
rwrist -6.16054
rhand -10.6429 5.43894
rfingers 7.12502
rthumb 15.3645 -23.9702
lclavicle 2.60408e-014 -3.45885e-014
lhumerus -23.2979 20.5981 81.0859
lradius 4.132
lwrist 0.0736932
lhand -10.1765 -5.0876
lfingers 7.12502
lthumb 15.8137 24.2865
rfemur 0.257345 4.609 23.6954
rtibia 32.5588
rfoot -13.8138 -17.0261
rtoes 6.74614
lfemur 2.5483 -6.65826 -16.2898
ltibia 24.217
lfoot -7.49636 -7.39065
ltoes -21.9323
